<?xml version="1.0" standalone="no"?>
<!DOCTYPE svg PUBLIC "-//W3C//DTD SVG 20010904//EN"
 "http://www.w3.org/TR/2001/REC-SVG-20010904/DTD/svg10.dtd">
<svg version="1.0" xmlns="http://www.w3.org/2000/svg"
 width="299.000000pt" height="349.000000pt" viewBox="0 0 299.000000 349.000000"
 preserveAspectRatio="xMidYMid meet">

<g transform="translate(0.000000,349.000000) scale(0.100000,-0.100000)"
fill="#000000" stroke="none">
<path d="M1540 3440 c-82 -10 -207 -42 -294 -75 -399 -150 -706 -524 -781
-949 -17 -102 -20 -284 -5 -404 13 -99 64 -260 115 -363 42 -83 116 -202 148
-237 l21 -22 -23 -28 c-12 -15 -29 -43 -37 -62 -14 -32 -19 -35 -48 -32 -19 2
-45 -2 -59 -10 -14 -7 -137 -129 -274 -271 -169 -176 -255 -273 -270 -305 -58
-121 -3 -280 119 -344 33 -18 59 -23 113 -23 117 1 129 10 415 304 140 145
260 273 267 284 16 28 16 86 0 115 -12 21 -9 27 36 77 l50 54 26 -18 c45 -32
133 -73 221 -103 270 -93 573 -91 856 6 385 131 717 504 798 900 41 197 39
356 -5 549 -48 205 -167 421 -319 581 -182 191 -368 293 -655 361 -81 20 -316
28 -415 15z m350 -105 c358 -61 627 -246 814 -558 115 -191 178 -441 162 -645
-21 -279 -129 -518 -326 -726 -157 -165 -394 -292 -617 -331 -175 -31 -435
-15 -586 36 -417 139 -700 463 -777 891 -25 141 -25 255 0 394 47 258 158 465
350 647 166 160 368 259 600 296 89 14 288 12 380 -4z m-1042 -2052 c21 -21
53 -50 72 -64 l34 -26 -41 -43 -40 -44 -54 52 c-30 28 -63 58 -73 66 -19 13
-19 15 19 55 22 22 41 41 42 41 2 0 21 -17 41 -37z m-141 -164 c58 -50 153
-149 153 -161 0 -13 -64 -82 -270 -292 -107 -109 -201 -205 -208 -212 -46 -48
-139 -60 -196 -25 -64 40 -97 159 -63 233 13 29 397 427 455 471 48 37 72 34
129 -14z"/>
<path d="M1535 3244 c-419 -65 -754 -367 -867 -781 -30 -111 -37 -347 -13
-464 104 -508 521 -849 1040 -849 498 0 914 317 1042 795 23 88 26 119 27 260
0 182 -16 268 -78 412 -71 167 -226 359 -361 450 -236 159 -510 220 -790 177z
m429 -118 c94 -26 253 -96 305 -135 l25 -19 -86 -55 c-48 -31 -92 -62 -99 -70
-11 -11 -20 -6 -53 29 -70 72 -156 70 -230 -5 -32 -33 -40 -48 -44 -91 -5 -57
9 -43 -197 -179 -27 -19 -62 -42 -77 -52 -25 -18 -27 -18 -50 0 -13 10 -40 23
-59 29 -100 27 -198 -54 -186 -155 5 -43 3 -45 -37 -70 -154 -96 -236 -157
-236 -178 0 -25 37 -68 54 -62 6 2 69 48 139 101 125 95 129 97 149 80 14 -13
36 -18 77 -19 48 0 64 5 95 29 41 31 66 78 66 126 0 20 7 34 22 42 12 7 82 53
156 101 l134 89 23 -22 c33 -31 110 -38 159 -15 42 20 82 74 92 123 4 17 12
32 18 32 16 0 155 87 188 117 15 15 33 23 42 20 21 -8 167 -193 203 -258 79
-140 115 -282 116 -449 1 -153 -36 -320 -96 -425 -21 -38 -25 -40 -75 -43
l-52 -3 0 466 0 466 -57 -3 -58 -3 0 -460 0 -460 -42 -3 c-38 -3 -43 0 -49 21
-3 14 -4 149 -2 301 l3 276 -57 0 -58 0 0 -300 0 -300 -45 0 -45 0 0 376 0
375 -52 -3 -53 -3 -3 -373 -2 -373 -48 3 -47 3 -5 300 -5 300 -49 3 c-29 2
-52 -1 -56 -8 -4 -6 -5 -142 -2 -301 l5 -289 -52 0 -51 0 0 184 c0 204 3 196
-71 196 -46 0 -43 16 -39 -222 l2 -158 -51 0 -51 0 0 185 0 185 -54 0 -53 0
-7 -46 c-3 -26 -6 -109 -6 -185 l0 -139 -45 0 -45 0 0 110 0 111 -57 -3 -58
-3 0 -105 0 -105 -65 -5 -65 -5 0 -45 0 -45 762 -5 c419 -3 764 -8 767 -11 8
-8 -102 -131 -159 -178 -168 -141 -380 -213 -620 -213 -249 1 -446 68 -627
213 -152 122 -282 337 -322 532 -45 221 -21 446 67 622 66 134 212 304 330
384 104 71 258 132 380 152 29 4 115 6 192 4 112 -2 160 -8 239 -29z m20 -307
c15 -12 26 -30 26 -44 0 -24 -41 -65 -65 -65 -23 0 -65 41 -65 64 0 23 22 49
50 59 24 9 26 8 54 -14z m-584 -339 c37 -37 15 -110 -32 -110 -27 0 -68 45
-68 74 0 27 33 56 62 56 10 0 27 -9 38 -20z"/>
<path d="M1097 144 c-282 -16 -362 -29 -362 -59 0 -12 10 -21 30 -27 105 -28
972 -46 1434 -29 300 11 401 21 429 43 17 15 15 35 -5 43 -94 36 -1083 55
-1526 29z"/>
</g>
</svg>
